<?xml version="1.0" encoding="UTF-8"?>
<svg id="Layer_1" xmlns="http://www.w3.org/2000/svg" version="1.1" viewBox="0 0 80 61.05">
  <!-- Generator: Adobe Illustrator 29.5.1, SVG Export Plug-In . SVG Version: 2.1.0 Build 141)  -->
  <path d="M30.97,21.13v8.45c0,.62-.5,1.13-1.13,1.13s-1.13-.5-1.13-1.13v-8.45c0-.62.5-1.13,1.13-1.13s1.13.5,1.13,1.13ZM32.09,23.09v4.54c0,.62.5,1.13,1.13,1.13s1.13-.5,1.13-1.13v-4.54c0-.62-.5-1.13-1.13-1.13s-1.13.5-1.13,1.13ZM35.48,21.13v8.45c0,.62.5,1.13,1.13,1.13s1.13-.5,1.13-1.13v-8.45c0-.62-.5-1.13-1.13-1.13s-1.13.5-1.13,1.13ZM38.87,19.67v11.37c0,.62.5,1.13,1.13,1.13s1.13-.5,1.13-1.13v-11.37c0-.62-.5-1.13-1.13-1.13s-1.13.5-1.13,1.13ZM51.29,29.58v-8.45c0-.62-.5-1.13-1.13-1.13s-1.13.5-1.13,1.13v8.45c0,.62.5,1.13,1.13,1.13s1.13-.5,1.13-1.13ZM47.91,27.62v-4.54c0-.62-.5-1.13-1.13-1.13s-1.13.5-1.13,1.13v4.54c0,.62.5,1.13,1.13,1.13s1.13-.5,1.13-1.13ZM44.52,29.58v-8.45c0-.62-.5-1.13-1.13-1.13s-1.13.5-1.13,1.13v8.45c0,.62.5,1.13,1.13,1.13s1.13-.5,1.13-1.13ZM56.22,47.77c-.02.62.47,1.14,1.1,1.16l19.48.53v1.56h-35.28c.54-1.8,1.65-3.37,3.25-4.57,2.15-1.62,4.67-1.54,7.58-1.45.24,0,.48.02.72.02l23.73.64v1.54l-19.42-.53h-.03c-.61,0-1.11.48-1.13,1.1h0ZM53.93,47.7c.02-.62-.48-1.14-1.1-1.16l-1.99-.05c-.62-.01-1.14.48-1.16,1.1-.02.62.48,1.14,1.1,1.16l1.99.05h.03c.61,0,1.11-.48,1.13-1.1h0ZM0,53.28v4.12h34.06c.43,0,.82.24,1.01.62.95,1.88,2.84,3.04,4.93,3.04s3.98-1.16,4.93-3.04c.19-.38.58-.62,1.01-.62h34.06v-4.12H0ZM38.48,51.02H3.2v-1.56l19.48-.53c.62-.02,1.11-.54,1.1-1.16-.02-.61-.52-1.1-1.13-1.1h-.03l-19.42.53v-1.54l23.74-.64c.24,0,.48-.02.72-.02,2.91-.09,5.43-.17,7.57,1.45,1.61,1.21,2.71,2.77,3.25,4.57h0ZM30.31,47.59c-.02-.62-.54-1.11-1.16-1.1l-1.99.05c-.62.02-1.11.54-1.1,1.16.02.61.52,1.1,1.13,1.1h.03l1.99-.05c.62-.02,1.11-.54,1.1-1.16h0ZM22.38,22.2v-.41c0-5.68,2.71-10.93,7.3-14.25l.41.64c.16.26.43.44.72.5.3.06.61,0,.86-.17,2.47-1.67,5.34-2.55,8.3-2.55s5.83.88,8.3,2.55c.19.13.41.19.63.19.08,0,.15,0,.23-.02.3-.06.56-.24.72-.5l.41-.64c4.59,3.32,7.3,8.57,7.3,14.25v.41c.34.13.66.31.94.54.36-.34.82-.58,1.32-.7v-.26c0-6.46-3.1-12.42-8.34-16.16l.34-.54c.32-.52.18-1.2-.32-1.54-3.42-2.32-7.4-3.55-11.53-3.55s-8.11,1.23-11.53,3.55c-.5.34-.64,1.02-.32,1.54l.34.54c-5.25,3.74-8.34,9.7-8.34,16.16v.26c.5.12.95.36,1.31.7.28-.23.6-.41.95-.54h0ZM22.38,25.47v13.26c0,.68.57,1.24,1.24,1.24s1.25-.56,1.25-1.24v-13.26c0-.69-.56-1.25-1.25-1.25s-1.24.56-1.24,1.25ZM59.83,25.47v13.85c0,.35.3.65.65.65h2.13c1.54,0,2.79-1.25,2.79-2.79v-10.18c0-1.54-1.25-2.79-2.79-2.79h-2.13c-.35,0-.65.3-.65.66v.59ZM17.34,39.98h2.13c.36,0,.66-.3.66-.65v-14.45c0-.36-.29-.66-.66-.66h-2.13c-1.54,0-2.79,1.25-2.79,2.79v10.18c0,1.54,1.25,2.79,2.79,2.79h0ZM57.57,38.74v-13.26c0-.69-.56-1.25-1.25-1.25s-1.25.56-1.25,1.25v13.26c0,.69.56,1.24,1.25,1.24s1.25-.56,1.25-1.24Z"/>
</svg>
