<?xml version="1.0" encoding="UTF-8"?>
<svg id="Layer_1" xmlns="http://www.w3.org/2000/svg" version="1.1" viewBox="0 0 80 69.3">
  <!-- Generator: Adobe Illustrator 29.5.1, SVG Export Plug-In . SVG Version: 2.1.0 Build 141)  -->
  <path d="M1.13,65.85h32.6c1.36,2.14,3.7,3.45,6.27,3.45s4.91-1.3,6.27-3.45h32.6c.62,0,1.13-.5,1.13-1.13v-6.02c0-.62-.5-1.13-1.13-1.13h-1.9v-6.04c0-.61-.49-1.11-1.1-1.13l-23.47-.64c-.23,0-.45-.01-.67-.02-3.03-.09-5.89-.18-8.55,1.8-1.39,1.04-2.46,2.31-3.19,3.76-.73-1.45-1.8-2.72-3.18-3.76-2.65-1.99-5.52-1.9-8.55-1.8-.22,0-.45.02-.67.02l-23.47.64c-.61.02-1.1.52-1.1,1.13v6.04h-1.9c-.62,0-1.13.5-1.13,1.13v6.02c0,.62.5,1.13,1.13,1.13h0ZM44.55,53.36c2.02-1.52,4.38-1.44,7.12-1.36.23,0,.45.02.68.02l22.37.61v1.32l-18.28-.5c-.62-.01-1.14.47-1.16,1.1-.02.62.47,1.14,1.1,1.16l18.34.5v1.35h-33.19c.52-1.66,1.55-3.1,3.03-4.21h0ZM5.29,56.22l18.34-.5c.62-.02,1.11-.54,1.1-1.16-.02-.62-.54-1.11-1.16-1.1l-18.28.5v-1.32l22.37-.61c.23,0,.45-.01.68-.02,2.74-.09,5.11-.16,7.12,1.35,1.48,1.11,2.51,2.55,3.02,4.21H5.29v-1.36ZM2.26,59.83h75.48v3.77h-32.12c-.43,0-.82.24-1.01.62-.89,1.75-2.65,2.83-4.61,2.83s-3.72-1.09-4.61-2.83c-.19-.38-.58-.62-1.01-.62H2.26s0-3.77,0-3.77ZM56.87,24.22c-1.65,0-3,1.34-3,3v12.87c0,1.65,1.34,2.99,3,2.99.64,0,1.23-.2,1.71-.54.43.34.97.54,1.56.54h1.68c2.32,0,4.2-1.89,4.2-4.2v-10.45c0-2.32-1.89-4.21-4.2-4.21h-1.68c-.11,0-.21,0-.32.02v-2.46c0-6.46-3.1-12.41-8.35-16.15l.34-.54c.32-.52.18-1.2-.32-1.54-3.42-2.32-7.4-3.55-11.53-3.55s-8.11,1.23-11.53,3.55c-.5.34-.64,1.02-.32,1.54l.34.54c-5.25,3.74-8.34,9.7-8.34,16.15v2.45c-.09-.01-.18-.02-.27-.02h-1.67c-2.32,0-4.21,1.89-4.21,4.21v10.45c0,2.32,1.89,4.2,4.21,4.2h1.67c.59,0,1.13-.2,1.56-.54.48.34,1.07.54,1.71.54,1.65,0,3-1.34,3-2.99v-12.87c0-1.65-1.34-3-3-3-.26,0-.5.04-.74.1v-2.53c0-5.68,2.71-10.92,7.3-14.24l.41.64c.16.26.43.44.72.5s.61,0,.86-.17c2.47-1.67,5.34-2.55,8.3-2.55s5.84.88,8.3,2.55c.19.13.41.19.63.19.08,0,.16,0,.23-.02.3-.06.56-.24.72-.5l.41-.64c4.59,3.32,7.3,8.57,7.3,14.24v2.52c-.23-.05-.46-.09-.7-.09h0ZM20.13,40.55c0,.14-.12.27-.27.27h-1.67c-1.07,0-1.95-.88-1.95-1.95v-10.45c0-1.07.88-1.95,1.95-1.95h1.67c.15,0,.27.12.27.27v13.81ZM23.13,26.48c.41,0,.74.33.74.74v12.87c0,.4-.34.73-.74.73s-.74-.34-.74-.73v-12.87c0-.41.33-.74.74-.74ZM48.56,6.02c-2.61-1.52-5.55-2.32-8.59-2.32s-5.97.8-8.58,2.32l-.76-1.2c2.83-1.69,6.04-2.57,9.34-2.57s6.51.89,9.34,2.57l-.75,1.2ZM56.87,40.83c-.4,0-.74-.34-.74-.73v-12.87c0-.41.33-.74.74-.74s.74.33.74.74v12.87c0,.4-.34.73-.74.73ZM59.87,26.75c0-.15.12-.27.27-.27h1.68c1.07,0,1.95.88,1.95,1.95v10.45c0,1.07-.88,1.95-1.95,1.95h-1.68c-.15,0-.27-.12-.27-.27v-13.81ZM30.97,21.13v8.44c0,.62-.5,1.13-1.13,1.13s-1.13-.5-1.13-1.13v-8.44c0-.62.5-1.13,1.13-1.13s1.13.5,1.13,1.13ZM33.23,21.95c.62,0,1.13.5,1.13,1.13v4.54c0,.62-.5,1.13-1.13,1.13s-1.13-.5-1.13-1.13v-4.54c0-.62.5-1.13,1.13-1.13ZM36.61,20c.62,0,1.13.5,1.13,1.13v8.44c0,.62-.5,1.13-1.13,1.13s-1.13-.5-1.13-1.13v-8.44c0-.62.5-1.13,1.13-1.13ZM40,18.54c.62,0,1.13.5,1.13,1.13v11.37c0,.62-.5,1.13-1.13,1.13s-1.13-.5-1.13-1.13v-11.37c0-.62.5-1.13,1.13-1.13ZM50.16,20c.62,0,1.13.5,1.13,1.13v8.44c0,.62-.5,1.13-1.13,1.13s-1.13-.5-1.13-1.13v-8.44c0-.62.5-1.13,1.13-1.13ZM46.77,21.95c.62,0,1.13.5,1.13,1.13v4.54c0,.62-.5,1.13-1.13,1.13s-1.13-.5-1.13-1.13v-4.54c0-.62.5-1.13,1.13-1.13ZM43.39,20c.62,0,1.13.5,1.13,1.13v8.44c0,.62-.5,1.13-1.13,1.13s-1.13-.5-1.13-1.13v-8.44c0-.62.5-1.13,1.13-1.13ZM30.91,54.39c.02.62-.48,1.14-1.1,1.16l-1.88.05h-.03c-.61,0-1.11-.48-1.13-1.1-.02-.62.48-1.14,1.1-1.16l1.88-.05c.63-.02,1.14.48,1.16,1.1h0ZM49.1,54.39c.02-.61.52-1.1,1.13-1.1h.03l1.88.05c.62.02,1.11.54,1.1,1.16-.02.61-.52,1.1-1.13,1.1h-.03l-1.88-.05c-.62-.02-1.11-.54-1.1-1.16Z"/>
</svg>
