<?xml version="1.0" encoding="UTF-8"?>
<svg id="Layer_1" xmlns="http://www.w3.org/2000/svg" version="1.1" viewBox="0 0 100 100">
  <!-- Generator: Adobe Illustrator 29.5.1, SVG Export Plug-In . SVG Version: 2.1.0 Build 141)  -->
  <path d="M52.41,99.89c25.89-.71,48.12-23.96,47.58-49.91C100.55,23.12,76.87-.54,50,0,23.13-.55-.54,23.12.01,49.98c-.64,27.75,24.77,51.88,52.4,49.91ZM51.09,94.81c-10.95.34-22.12-3.7-30.29-10.81,3.15-9.31,10.75-16.75,20.2-19.67,5.79,2.45,12.6,2.45,18.4.01,9.34,2.9,16.86,10.2,20.08,19.41-7.59,6.71-17.94,10.87-28.39,11.06h0ZM5.14,49.98C5.14,25.25,25.27,5.13,50,5.13s44.86,20.12,44.86,44.84c0,11.45-4.32,21.91-11.41,29.84-3.48-8.26-10.23-15.16-18.42-18.81,5.54-4.38,9.11-11.16,9.11-18.76,0-13.19-10.73-23.92-23.93-23.92s-23.93,10.73-23.93,23.92c0,7.59,3.55,14.36,9.09,18.75-8.33,3.75-15.12,10.69-18.58,19.11-7.24-7.97-11.66-18.54-11.66-30.13h0Z"/>
</svg>