<?xml version="1.0" encoding="UTF-8"?>
<svg id="Layer_1" xmlns="http://www.w3.org/2000/svg" version="1.1" viewBox="0 0 100 100">
  <!-- Generator: Adobe Illustrator 29.5.1, SVG Export Plug-In . SVG Version: 2.1.0 Build 141)  -->
  <path d="M50.01,0C23.13,0-.55,23.12,0,50c-.55,26.88,23.12,50.55,50,50,26.87.55,50-23.12,50-50C100,31.62,86.01,0,50.01,0ZM20.81,84.03c3.18-9.36,10.75-16.76,20.22-19.68,5.59,2.43,12.78,2.44,18.38.01,9.34,2.9,16.88,10.21,20.09,19.43-15.38,14.47-43.18,14.59-58.68.25h0ZM50.22,61.06c-10.37,0-18.8-8.43-18.8-18.8s8.43-18.8,18.8-18.8,18.8,8.43,18.8,18.8c0,10.37-8.43,18.8-18.8,18.8ZM83.46,79.85c-3.48-8.26-10.23-15.17-18.42-18.82,5.54-4.39,9.11-11.17,9.11-18.77,0-13.19-10.73-23.93-23.93-23.93s-23.93,10.73-23.93,23.93c0,7.59,3.55,14.37,9.09,18.75-8.35,3.77-15.05,10.65-18.58,19.12-7.24-7.97-11.66-18.55-11.66-30.15C5.14,25.25,25.27,5.12,50,5.12s44.87,20.13,44.87,44.87c0,11.46-4.32,21.93-11.41,29.86h0Z"/>
</svg>
