<?xml version="1.0" encoding="UTF-8"?>
<svg id="Layer_1" xmlns="http://www.w3.org/2000/svg" version="1.1" viewBox="0 0 56 56.03">
  <!-- Generator: Adobe Illustrator 29.5.1, SVG Export Plug-In . SVG Version: 2.1.0 Build 141)  -->
  <path d="M8.47,51.84l-.46,3.42c-.03.19.03.38.16.53.13.15.33.24.53.24h38.6c.2,0,.4-.09.53-.24.13-.15.18-.34.16-.53l-.46-3.42c-.58-4.09-3.43-7.49-7.35-8.79l-7.18-2.72v.69c0,2.76-2.24,5-5,5s-5-2.24-5-5v-.69l-7.14,2.71c-3.94,1.29-6.81,4.7-7.39,8.8Z"/>
  <path d="M34.61,26.87c1.25-.84,2.09-2.16,2.34-3.65l.46-2.77c.08-.48.5-.83.99-.83.88.07,1.65-.59,1.72-1.47s-.59-1.65-1.47-1.72c-.08,0-.17,0-.25,0-.55,0-1-.45-1-1,.1-1.06-.56-2.05-1.58-2.36-2.68-.34-5.27-1.23-7.6-2.6-.06-.04-.14-.07-.22-.07-.08,0-.15.02-.22.07-2.33,1.37-4.92,2.26-7.6,2.6-1.02.31-1.68,1.3-1.58,2.36,0,.55-.45,1-1,1-.88-.07-1.65.59-1.72,1.47s.59,1.65,1.47,1.72c.08,0,.17,0,.25,0,.49,0,.91.35.99.84l.46,2.77c.25,1.48,1.09,2.8,2.34,3.65.25.17.52.36.8.56,1.65,1.16,3.69,2.59,5.82,2.59s4.17-1.44,5.81-2.59c.28-.2.55-.39.8-.56Z"/>
  <path d="M48.29,22.32c-.39.39-.39,1.02,0,1.41.4.38,1.02.38,1.41,0l6-6c.39-.39.39-1.02,0-1.41l-6-6c-.4-.38-1.03-.37-1.41.02-.37.39-.37,1,0,1.39l4.59,4.59c.39.39.39,1.02,0,1.41l-4.59,4.59Z"/>
  <path d="M25,40.54v.48c0,1.66,1.34,3,3,3s3-1.34,3-3v-.48c-1.95.64-4.05.64-6,0Z"/>
  <path d="M40,12C40,5.37,34.63,0,28,0s-12,5.37-12,12v2.82c.22-.11.44-.2.68-.26.22-1.73,1.52-3.12,3.22-3.46,2.41-.3,4.73-1.09,6.82-2.31.78-.49,1.78-.49,2.56,0,2.09,1.23,4.41,2.01,6.82,2.31,1.71.34,3.01,1.73,3.22,3.46.23.06.46.15.68.27v-2.82Z"/>
  <path d="M7.71,11.73c.38-.4.37-1.03-.02-1.41-.39-.37-1-.37-1.39,0L.29,16.32c-.39.39-.39,1.02,0,1.41l6,6c.4.38,1.02.38,1.41,0,.39-.39.39-1.02,0-1.41l-4.59-4.59c-.39-.39-.39-1.02,0-1.41l4.59-4.59Z"/>
</svg>
