<?xml version="1.0" encoding="UTF-8"?>
<svg id="Layer_1" xmlns="http://www.w3.org/2000/svg" version="1.1" viewBox="0 0 60 60.03">
  <!-- Generator: Adobe Illustrator 29.5.1, SVG Export Plug-In . SVG Version: 2.1.0 Build 141)  -->
  <path d="M19.07,25.56c.34,2.03,1.5,3.83,3.2,4.98.24.16.5.34.77.54,1.77,1.25,4.2,2.96,6.96,2.96s5.19-1.71,6.96-2.96c.27-.19.53-.37.77-.54,1.7-1.15,2.86-2.95,3.2-4.98l.34-2.04c1.6-.4,2.73-1.84,2.73-3.49v-6.03c0-7.73-6.27-14-14-14s-14,6.27-14,14v6.03c0,1.65,1.13,3.09,2.73,3.49l.34,2.04ZM30,2.03c6.62,0,11.99,5.36,12,11.97v2.82c-.22-.11-.44-.2-.68-.26-.22-1.73-1.52-3.12-3.22-3.46-2.41-.3-4.73-1.09-6.82-2.31-.78-.49-1.78-.49-2.56,0-2.09,1.23-4.42,2.01-6.82,2.31-1.71.34-3.01,1.73-3.23,3.46-.23.06-.46.15-.67.27v-2.82c.01-6.62,5.38-11.97,12-11.97ZM18,20.03c0-.88.72-1.6,1.6-1.59.55,0,1-.45,1-1-.1-1.06.56-2.05,1.58-2.36,2.68-.34,5.27-1.23,7.6-2.6.06-.04.14-.06.22-.07.08,0,.15.02.22.07,2.33,1.37,4.92,2.26,7.6,2.6,1.02.31,1.68,1.3,1.58,2.36,0,.55.45,1,1,1,.88-.07,1.65.59,1.72,1.47s-.59,1.65-1.47,1.72c-.08,0-.17,0-.25,0-.49,0-.91.35-.99.84l-.46,2.77c-.25,1.49-1.09,2.8-2.34,3.65-.25.17-.52.36-.8.56-1.65,1.16-3.69,2.59-5.81,2.59s-4.17-1.44-5.81-2.59c-.28-.2-.55-.39-.8-.56-1.25-.84-2.1-2.16-2.35-3.65l-.46-2.77c-.08-.48-.5-.83-.99-.83-.88,0-1.6-.72-1.6-1.6h0Z"/>
  <path d="M11.12,10.91c-1.17-1.17-3.07-1.17-4.24,0L.88,16.91c-1.17,1.17-1.17,3.07,0,4.24l6,6c1.15,1.19,3.05,1.22,4.24.07s1.22-3.05.07-4.24c-.02-.02-.05-.05-.07-.07l-3.88-3.88,3.88-3.88c1.17-1.17,1.17-3.07,0-4.24ZM9.71,13.73l-4.59,4.59c-.39.39-.39,1.02,0,1.41l4.59,4.59c.39.39.39,1.02,0,1.41-.4.38-1.02.38-1.41,0l-6-6c-.39-.39-.39-1.02,0-1.41l6-6c.4-.38,1.03-.37,1.41.02.37.39.37,1,0,1.39Z"/>
  <path d="M48.88,27.15c1.17,1.17,3.07,1.17,4.24,0l6-6c1.17-1.17,1.17-3.07,0-4.24l-6-6c-1.19-1.15-3.09-1.12-4.24.07-1.12,1.16-1.12,3.01,0,4.17l3.88,3.88-3.88,3.88c-1.16,1.17-1.16,3.07,0,4.24ZM50.29,24.32l4.59-4.59c.39-.39.39-1.02,0-1.41l-4.59-4.59c-.38-.4-.37-1.03.02-1.41.39-.37,1-.37,1.39,0l6,6c.39.39.39,1.02,0,1.41l-6,6c-.4.38-1.02.38-1.41,0-.39-.39-.39-1.02,0-1.41,0,0,0,0,0,0Z"/>
  <path d="M8.48,53.57l-.46,3.42c-.1.76.13,1.53.64,2.11.51.59,1.26.92,2.04.92h38.6c.78,0,1.52-.34,2.04-.92.51-.58.74-1.35.64-2.11l-.46-3.42c-.68-4.83-4.04-8.86-8.67-10.4l-7.94-3.01c-.59-.22-1.24-.17-1.79.13-.95.52-2.03.78-3.12.73-1.09.05-2.17-.21-3.12-.73-.56-.3-1.22-.35-1.81-.13l-7.88,2.99c-4.65,1.54-8.02,5.57-8.71,10.42ZM33,42.54v.48c0,1.66-1.34,3-3,3s-3-1.34-3-3v-.48c1.95.64,4.05.64,6,0ZM17.86,45.04l7.14-2.71v.69c0,2.76,2.24,5,5,5s5-2.24,5-5v-.69l7.18,2.72c3.92,1.29,6.77,4.7,7.35,8.79l.46,3.42c.03.19-.03.38-.16.53-.13.15-.33.24-.53.24H10.7c-.2,0-.4-.09-.53-.24-.13-.15-.19-.34-.16-.53l.46-3.42c.59-4.1,3.45-7.51,7.39-8.8h0Z"/>
</svg>