<?xml version="1.0" encoding="UTF-8"?>
<svg id="Layer_1" xmlns="http://www.w3.org/2000/svg" version="1.1" viewBox="0 0 69.43 87.47">
  <!-- Generator: Adobe Illustrator 29.5.1, SVG Export Plug-In . SVG Version: 2.1.0 Build 141)  -->
  <path d="M30.66,29.36c2.65,3.33,6.7,5.23,10.95,5.16,12.42.21,18.21-15.39,14-25.22-1.31-3.08-3.59-5.64-6.5-7.3-2.9-1.66-6.27-2.32-9.59-1.88-14,2.03-16.94,19.31-8.87,29.23h0ZM30.46,10.51h0c1.65-3.98,5.32-6.77,9.61-7.29,1.01-.24,2.06-.24,3.07,0,15.94,2.32,13.07,27.95-1.52,28.17-10.2.13-14.51-13.01-11.16-20.88h0Z"/>
  <path d="M56.96,38.43c.12-.51-.03-1.05-.4-1.43l-2.87-2.94c-.59-.61-1.56-.63-2.18-.05l-9.91,9.16-9.91-9.16c-.62-.58-1.59-.55-2.18.05l-2.87,2.94c-.36.38-.52.92-.39,1.43-3.65,1.3-6.81,3.7-9.05,6.87-2.23,3.17-3.43,6.95-3.43,10.82v.86c-3.77.39-7.27,2.17-9.8,4.98C1.41,64.79,0,68.44,0,72.24c.64,19.38,28.01,20.68,30.57,1.57h37.3,0c.41,0,.81-.16,1.11-.46.29-.3.46-.7.46-1.11v-16.1c0-3.88-1.2-7.66-3.43-10.82s-5.39-5.57-9.04-6.87h0ZM52.52,37.34l1.16,1.19-2.73,9.28-6.55-2.96,8.12-7.5ZM39.96,55.01h3.28l2.47,15.66h-8.21l2.47-15.66ZM43.67,51.88h-4.14l-1.79-3.11,3.86-1.75,3.86,1.75-1.79,3.11ZM30.67,37.34l8.12,7.51-6.55,2.96-2.73-9.28,1.16-1.19ZM27.11,41.46l2.64,8.97h0c.13.43.44.79.85.97.41.19.88.19,1.3,0l2.97-1.34,2.12,3.68-2.67,16.92h-3.75c-.36-3.5-1.92-6.77-4.41-9.27s-5.77-4.05-9.27-4.41c-.17-3.34.73-6.64,2.57-9.44,1.84-2.79,4.52-4.93,7.65-6.09h0ZM15.32,84.43c-6.73,0-12.19-5.46-12.19-12.19.61-16.16,23.78-16.15,24.39,0,0,6.73-5.46,12.19-12.19,12.19h0ZM66.3,70.67h-17.43l-2.67-16.92,2.12-3.68,2.97,1.34h0c.41.18.88.18,1.29,0,.41-.19.72-.54.85-.98l2.64-8.97h0c3,1.11,5.59,3.11,7.41,5.73,1.83,2.62,2.81,5.74,2.81,8.94v14.54Z"/>
  <path d="M21.57,67.53l-7.41,7.41-2.98-4.83c-.46-.72-1.41-.93-2.14-.48-.73.45-.96,1.39-.53,2.13l4.02,6.52h0c.25.4.68.67,1.15.73.47.05.95-.11,1.29-.45l8.81-8.81c.59-.61.58-1.59-.02-2.19-.61-.6-1.58-.61-2.19-.02h0Z"/>
</svg>
