<?xml version="1.0" encoding="UTF-8"?>
<svg id="Layer_1" xmlns="http://www.w3.org/2000/svg" version="1.1" viewBox="0 0 68.6 87.5">
  <!-- Generator: Adobe Illustrator 29.5.1, SVG Export Plug-In . SVG Version: 2.1.0 Build 141)  -->
  <path d="M55.09,57.24c.16-3.97-.95-7.89-3.16-11.19-2.22-3.3-5.43-5.8-9.18-7.15.11-.51-.04-1.04-.4-1.41l-2.84-2.91c-.59-.61-1.56-.63-2.18-.06l-9.79,9.05-9.79-9.05h0c-.62-.58-1.59-.55-2.18.06l-2.84,2.91c-.36.38-.51.91-.4,1.41-3.61,1.29-6.73,3.66-8.94,6.8-2.21,3.13-3.39,6.88-3.39,10.71v15.93c0,.42.16.81.46,1.11.29.29.69.46,1.11.46h36.86c.39,3.73,2.15,7.18,4.94,9.7,2.79,2.51,6.4,3.91,10.16,3.91,19.17-.63,20.48-27.71,1.57-30.26h0ZM51.96,56.4v.84c-3.46.36-6.7,1.91-9.16,4.37-2.46,2.46-4.01,5.7-4.37,9.16h-3.68l-2.63-16.72,2.09-3.62,2.93,1.32h0c.41.18.88.18,1.29-.01s.72-.54.85-.98l2.61-8.85h0c2.96,1.1,5.51,3.07,7.31,5.66,1.8,2.59,2.77,5.67,2.77,8.82h0ZM27.54,47.42l3.8,1.71-1.76,3.05h-4.08l-1.76-3.05,3.8-1.71ZM25.94,55.31h3.21l2.43,15.45h-8.08l2.44-15.45ZM38.34,37.85l1.13,1.16-2.7,9.15-6.44-2.91,8.01-7.39ZM16.75,37.85l8,7.4-6.45,2.91-2.69-9.15,1.13-1.16ZM3.12,56.4c0-3.15.97-6.23,2.77-8.82s4.35-4.57,7.31-5.66l2.61,8.85h0c.13.43.44.79.85.97.41.19.88.19,1.3,0l2.93-1.32,2.09,3.62-2.64,16.72H3.12v-14.36ZM53.52,84.37c-6.65,0-12.04-5.39-12.05-12.04.61-15.95,23.48-15.95,24.09,0h0c0,6.65-5.39,12.03-12.04,12.04h0Z"/>
  <path d="M58.75,67.67l-7.31,7.31-2.93-4.75c-.46-.71-1.41-.93-2.14-.48-.72.45-.96,1.39-.52,2.13l3.97,6.44h0c.25.41.67.68,1.15.73.48.05.95-.11,1.29-.45l8.71-8.71c.59-.62.58-1.59-.02-2.19-.6-.6-1.58-.61-2.19-.02h0Z"/>
  <path d="M14.02,32.51h8.59c3.06,1.73,6.8,1.73,9.86,0h8.6c1.89-.04,3.39-1.59,3.36-3.48v-11.21c-.79-23.55-32.76-23.96-33.78,0v11.22c-.03,1.89,1.47,3.45,3.36,3.48h0ZM27.53,30.68c-9.88-.41-11.94-18.97-1.39-21.03h0c.75,3.56,3.87,6.12,7.51,6.14l1.79-.04c1.69,5.55-1,14.81-7.91,14.92h0ZM13.78,17.81c.8-19.79,26.95-19.36,27.52,0v11.21c0,.19-.11.35-.23.35h-5.18c.18-.24.34-.49.5-.74h0c2.88-4.49,3.46-10.07,1.59-15.06-.24-.59-.81-.96-1.45-.96-.03,0-2.91.06-2.95.06h0c-1.23-.04-2.41-.57-3.25-1.47-.85-.9-1.3-2.11-1.27-3.34-.1-1.67-1.68-1.72-3.11-1.37-10.51,1.68-12.57,15.25-6.78,22.88h-5.18c-.12,0-.23-.16-.23-.35v-11.21Z"/>
</svg>