<?xml version="1.0" encoding="UTF-8"?>
<svg id="Layer_1" xmlns="http://www.w3.org/2000/svg" version="1.1" viewBox="0 0 68.71 87.5">
  <!-- Generator: Adobe Illustrator 29.5.1, SVG Export Plug-In . SVG Version: 2.1.0 Build 141)  -->
  <path d="M28.53,30.52c5.4,7.52,18.86,6.89,23.5-1.15,7.36-10.44,3.85-27.13-10.04-29.13h0c-1.41-.31-2.86-.31-4.27,0-14.5,2.09-17.56,20.02-9.2,30.28h0Z"/>
  <path d="M55.79,39.93c.13-.54-.03-1.11-.42-1.49l-2.97-3.04c-.61-.63-1.61-.66-2.25-.07l-10.27,9.5-10.28-9.5c-.64-.6-1.65-.57-2.25.07l-2.98,3.04c-.38.39-.54.96-.41,1.49-3.79,1.34-7.06,3.83-9.37,7.11-2.32,3.28-3.56,7.2-3.56,11.22v.89c.54-.05,1.07-.08,1.62-.08h0c3.93.02,7.71,1.48,10.63,4.11,2.91,2.63,4.76,6.25,5.17,10.15.11,1.08.11,2.16,0,3.25h38.66c.89,0,1.62-.73,1.62-1.62v-16.69c0-4.02-1.24-7.93-3.55-11.22-2.31-3.28-5.59-5.77-9.37-7.11h0ZM37.72,53.86l-1.85-3.23,4.01-1.8,3.99,1.8-1.85,3.23h-4.3ZM51.18,38.79l1.2,1.23-.16.57-2.66,9.05c-1.65-.74-5.12-2.32-6.8-3.07l8.42-7.79ZM28.55,38.79l8.42,7.79c-1.68.75-5.14,2.32-6.8,3.07l-2.66-9.05-.16-.57,1.2-1.23ZM35.6,73.33l2.57-16.22h3.39l2.56,16.22h-8.52Z"/>
  <path d="M12.64,62.31c-6.98.01-12.63,5.66-12.64,12.64.65,16.74,24.64,16.73,25.27,0h0c0-6.98-5.66-12.63-12.63-12.64h0ZM21.41,72.37l-9.13,9.13h0c-.36.34-.84.51-1.33.45-.49-.05-.93-.33-1.2-.75l-4.15-6.75h0c-.45-.76-.21-1.74.54-2.21.75-.47,1.74-.25,2.22.49l3.08,5.01,7.67-7.67c.64-.62,1.65-.61,2.27.01.63.62.64,1.63.03,2.27h0Z"/>
</svg>
