<?xml version="1.0" encoding="UTF-8"?>
<svg id="Layer_1" xmlns="http://www.w3.org/2000/svg" version="1.1" viewBox="0 0 68.07 87.5">
  <!-- Generator: Adobe Illustrator 29.5.1, SVG Export Plug-In . SVG Version: 2.1.0 Build 141)  -->
  <path d="M55.57,62.59c-6.9,0-12.49,5.6-12.5,12.5.58,16.55,24.42,16.55,25.01,0-.01-6.9-5.6-12.49-12.5-12.5ZM63.3,72.56l-9.04,9.03c-.35.35-.84.52-1.34.46-.49-.06-.93-.34-1.2-.76l-4.12-6.69c-.44-.77-.19-1.74.56-2.2.75-.46,1.74-.24,2.22.5l3.04,4.95,7.6-7.6c.64-.61,1.65-.6,2.27.03.62.63.63,1.64.02,2.27h0Z"/>
  <path d="M53.94,59.42c1.08-.11,2.17-.11,3.25,0v-.86c0-3.98-1.23-7.86-3.52-11.11-2.29-3.25-5.54-5.72-9.28-7.06.11-.53-.05-1.08-.42-1.48l-2.94-3.02c-.62-.62-1.62-.64-2.27-.05l-10.16,9.39-10.16-9.39h0c-.64-.59-1.64-.57-2.26.05l-2.96,3.02h0c-.38.39-.54.95-.42,1.48-3.75,1.34-6.99,3.8-9.28,7.06C1.23,50.7,0,54.58,0,58.56v16.53c0,.89.73,1.62,1.62,1.62h38.28c-.41-4.15.83-8.3,3.46-11.54,2.63-3.24,6.43-5.31,10.58-5.76h0ZM26.48,54.18l-1.84-3.17,3.93-1.79s3.95,1.79,3.96,1.79l-1.82,3.17h-4.23ZM39.8,39.3l1.18,1.2-.16.55-2.63,8.95c-1.76-.78-4.93-2.22-6.69-3.02l8.3-7.68ZM17.39,39.3l8.3,7.68c-1.76.8-4.92,2.24-6.68,3.02l-2.65-8.95-.16-.55,1.19-1.2ZM24.39,73.47l2.55-16.04h3.31l2.55,16.04h-8.41Z"/>
  <path d="M36.81,16.37c-4.5.54-8.63-1.7-9.66-6.35-10.96,2.12-8.82,21.41,1.45,21.82,7.2-.14,9.94-9.7,8.21-15.48h0Z"/>
  <path d="M14.55,33.75h8.91c-10.52-6.57-8.91-26.47,4.97-27.2h0c.45-.03.89.12,1.22.43.33.3.52.73.53,1.18,0,1.4.55,2.73,1.54,3.72,1.45,1.7,4.26,1.23,6.22,1.22.65,0,1.24.41,1.49,1.01,2.64,6.38.6,15.91-5.75,19.65h8.95c1.96-.04,3.52-1.65,3.49-3.61v-11.65c-.83-24.47-34.02-24.85-35.07,0v11.65c-.02,1.96,1.54,3.57,3.49,3.61h0Z"/>
</svg>
