<?xml version="1.0" encoding="UTF-8"?>
<svg id="Layer_1" xmlns="http://www.w3.org/2000/svg" version="1.1" viewBox="0 0 491.91 491.97">
  <!-- Generator: Adobe Illustrator 29.5.1, SVG Export Plug-In . SVG Version: 2.1.0 Build 141)  -->
  <defs>
    <style>
      .st0 {
        fill-rule: evenodd;
      }
    </style>
  </defs>
  <path class="st0" d="M66.83,13.49c62.57,18.66,78.53,43.92,73.27,74.94-3.61,21.28-17.71,44.52-33.29,70.2C56.67,241.26-9.49,350.38,245.4,479.02c92.58-64.6,163.78-5.79,228.06-59.34C163.49,348.16,181.86,233.76,196.52,142.71c2.84-17.63,5.53-34.35,5.44-49.35-.26-42.15-23.83-72.82-135.13-79.88h0ZM81.63,300.34c-.93-3.16.87-6.48,4.03-7.42,3.16-.93,6.48.87,7.42,4.03.01.03.02.07.03.1,10.5,36.43,46.89,70.33,78.41,89.51,2.82,1.72,3.71,5.41,1.99,8.23s-5.41,3.71-8.23,1.99h0c-34.24-20.84-72.27-56.93-83.66-96.45h0ZM128.29,86.47C133.72,54.47,108.28,29.43,4.95,11.9h0C-2.18,10.71-1.38.05,5.91.02c173.99-1.06,207.67,37.26,208.01,93.31.1,16-2.67,33.17-5.58,51.27-14.04,87.2-31.71,197.03,278.65,265.91,3.25.59,5.41,3.7,4.83,6.95-.22,1.21-.8,2.32-1.67,3.18-72.38,72.13-146.28,1.93-240.7,70.21h0c-1.81,1.29-4.19,1.49-6.18.49C-27.03,356.19,43.35,240.19,96.59,152.45c14.94-24.62,28.47-46.91,31.7-65.98h0Z"/>
</svg>